<?xml version="1.0" standalone="no"?>
<!DOCTYPE svg PUBLIC "-//W3C//DTD SVG 20010904//EN"
 "http://www.w3.org/TR/2001/REC-SVG-20010904/DTD/svg10.dtd">
<svg version="1.0" xmlns="http://www.w3.org/2000/svg"
 width="100.000000pt" height="100.000000pt" viewBox="0 0 100.000000 100.000000"
 preserveAspectRatio="xMidYMid meet">
<metadata>
Created by potrace 1.14, written by Peter Selinger 2001-2017
</metadata>
<g transform="translate(0.000000,100.000000) scale(0.100000,-0.100000)"
fill="#000000" stroke="none">
<path d="M264 979 c-35 -10 -82 -53 -95 -87 -5 -13 -9 -125 -9 -249 0 -329
-12 -317 340 -327 235 -7 235 -7 269 16 66 45 71 67 71 311 0 233 -5 262 -51
303 -13 12 -39 26 -58 33 -41 13 -420 14 -467 0z m401 -103 c64 -27 75 -61 75
-231 0 -226 -13 -240 -236 -250 -165 -8 -193 2 -232 76 -22 41 -23 54 -20 184
3 156 11 179 71 215 28 17 51 20 170 20 97 0 148 -4 172 -14z"/>
<path d="M328 821 l-33 -29 0 -146 0 -146 28 -27 c27 -28 29 -28 172 -31 l145
-3 30 29 30 30 0 147 0 147 -29 29 -29 29 -141 0 -141 0 -32 -29z m322 -26
c17 -20 5 -45 -20 -45 -11 0 -23 7 -26 15 -6 15 11 45 26 45 4 0 13 -7 20 -15z
m-90 -40 c43 -22 60 -53 60 -108 0 -85 -57 -135 -141 -124 -96 13 -138 124
-77 202 36 46 103 58 158 30z"/>
<path d="M436 699 c-34 -40 -33 -74 3 -110 35 -35 77 -38 115 -8 21 16 26 29
26 64 0 35 -5 48 -26 64 -40 31 -87 28 -118 -10z"/>
<path d="M120 135 c0 -28 5 -38 20 -42 20 -5 29 -43 10 -43 -5 0 -10 7 -10 15
0 8 -5 15 -11 15 -6 0 -9 -10 -7 -22 2 -15 11 -24 27 -26 45 -7 59 62 16 78
-24 9 -36 40 -15 40 6 0 10 -4 10 -10 0 -5 7 -10 16 -10 31 0 10 35 -24 38
-31 3 -32 2 -32 -33z"/>
<path d="M218 100 c-12 -57 -12 -70 -1 -70 7 0 13 7 13 15 0 8 9 15 20 15 11
0 20 -7 20 -15 0 -8 5 -15 10 -15 13 0 13 11 -2 82 -9 42 -16 58 -28 58 -12 0
-20 -18 -32 -70z m42 -6 c0 -8 -4 -14 -10 -14 -5 0 -10 9 -10 21 0 11 5 17 10
14 6 -3 10 -13 10 -21z"/>
<path d="M310 158 c2 -41 28 -123 40 -123 15 0 47 122 35 133 -9 9 -25 -19
-25 -45 0 -13 -4 -23 -10 -23 -5 0 -10 9 -10 19 0 26 -10 51 -21 51 -5 0 -9
-6 -9 -12z"/>
<path d="M410 100 l0 -70 35 0 c19 0 35 5 35 10 0 6 -11 10 -25 10 -18 0 -25
5 -25 20 0 13 7 20 20 20 11 0 20 5 20 10 0 6 -9 10 -20 10 -13 0 -20 7 -20
20 0 15 7 20 25 20 14 0 25 5 25 10 0 6 -16 10 -35 10 l-35 0 0 -70z"/>
<path d="M500 100 c0 -40 4 -70 10 -70 6 0 10 30 10 70 0 40 -4 70 -10 70 -6
0 -10 -30 -10 -70z"/>
<path d="M540 100 c0 -72 19 -102 21 -32 l1 37 16 -37 c27 -60 42 -49 42 32 0
56 -3 70 -15 70 -10 0 -15 -11 -16 -32 l-1 -33 -10 33 c-6 17 -17 32 -24 32
-11 0 -14 -18 -14 -70z"/>
<path d="M640 135 c0 -28 5 -38 20 -42 20 -5 29 -43 10 -43 -5 0 -10 7 -10 15
0 8 -5 15 -11 15 -6 0 -9 -10 -7 -22 2 -15 11 -24 27 -26 45 -7 59 62 16 78
-24 9 -36 40 -15 40 6 0 10 -4 10 -10 0 -5 7 -10 16 -10 31 0 10 35 -24 38
-31 3 -32 2 -32 -33z"/>
<path d="M720 160 c0 -5 7 -10 15 -10 12 0 15 -13 15 -60 0 -33 4 -60 10 -60
6 0 10 27 10 60 0 33 4 60 10 60 6 0 10 5 10 10 0 6 -16 10 -35 10 -19 0 -35
-4 -35 -10z"/>
<path d="M827 133 c-4 -21 -9 -53 -13 -70 -4 -22 -3 -33 5 -33 6 0 11 7 11 15
0 8 9 15 20 15 11 0 20 -7 20 -15 0 -8 6 -15 14 -15 12 0 12 8 0 58 -7 31 -13
63 -14 70 0 6 -8 12 -19 12 -14 0 -20 -10 -24 -37z m29 -51 c-12 -11 -18 7
-10 30 l8 23 4 -23 c2 -13 1 -26 -2 -30z"/>
</g>
</svg>
