<svg width="25" height="24" viewBox="0 0 25 24" fill="none" xmlns="http://www.w3.org/2000/svg">
<path fill-rule="evenodd" clip-rule="evenodd" d="M8.75003 2.83333C8.75003 2.3731 9.12313 2 9.58336 2H15.4167C15.8769 2 16.25 2.3731 16.25 2.83333V9.5H20.4167C20.7579 9.5 21.0646 9.70794 21.1908 10.0249C21.3171 10.3418 21.2375 10.7037 20.9898 10.9383L13.0732 18.4383C12.7517 18.7428 12.2483 18.7428 11.9269 18.4383L4.01024 10.9383C3.76258 10.7037 3.68294 10.3418 3.80923 10.0249C3.93551 9.70794 4.24221 9.5 4.58336 9.5H8.75003V2.83333ZM10.4167 3.66667V10.3333C10.4167 10.7936 10.0436 11.1667 9.58336 11.1667H6.67468L12.5 16.6854L18.3254 11.1667H15.4167C14.9565 11.1667 14.5834 10.7936 14.5834 10.3333V3.66667H10.4167Z" fill="white"/>
<path d="M10.4167 10.3333V3.66667H14.5834V10.3333C14.5834 10.7936 14.9565 11.1667 15.4167 11.1667H18.3254L12.5 16.6854L6.67468 11.1667H9.58336C10.0436 11.1667 10.4167 10.7936 10.4167 10.3333Z" fill="white"/>
<rect x="3.5" y="21.3335" width="18" height="2" fill="white"/>
</svg>
