<svg width="16" height="16" viewBox="0 0 16 16" fill="none" xmlns="http://www.w3.org/2000/svg">
<path d="M1.33325 7.00016V8.9544C1.33325 10.5687 1.72879 11.2242 2.24332 11.7563C2.77599 12.2708 3.43219 12.6668 5.04605 12.6668H8.95379C10.5677 12.6668 11.2239 12.2708 11.7565 11.7563C12.2711 11.2242 12.6666 10.5687 12.6666 8.9544V5.04592C12.6666 3.43222 12.2711 2.77609 11.7565 2.24404C11.2239 1.72956 10.5677 1.3335 8.95379 1.3335H5.04605C3.43219 1.3335 2.77599 1.72956 2.24332 2.24404C1.72879 2.77609 1.33325 3.43222 1.33325 5.04592V7.00016Z" fill="#252638"/>
<path d="M4.24341 13.7559C4.77607 14.2704 5.43227 14.6664 7.04614 14.6664H10.9539C12.5677 14.6664 13.2239 14.2704 13.7566 13.7559C14.2711 13.2239 14.6667 12.5683 14.6667 10.954V7.04554C14.6667 5.43183 14.2711 4.7757 13.7566 4.24365" stroke="#252638" stroke-linecap="round" stroke-linejoin="round"/>
</svg>
